<svg width="40" height="36" viewBox="0 0 40 36" fill="none" xmlns="http://www.w3.org/2000/svg">
<g clip-path="url(#clip0_17:809)">
<path d="M27.9583 5.79235L34.2222 12.0717C34.4861 12.3363 34.4861 12.7679 34.2222 13.0324L19.0556 28.2367L12.6111 28.9537C11.75 29.0512 11.0208 28.3202 11.1181 27.457L11.8333 20.9966L27 5.79235C27.2639 5.52781 27.6944 5.52781 27.9583 5.79235ZM39.2083 4.19814L35.8194 0.800859C34.7639 -0.257309 33.0486 -0.257309 31.9861 0.800859L29.5278 3.26528C29.2639 3.52982 29.2639 3.96144 29.5278 4.22598L35.7917 10.5054C36.0556 10.7699 36.4861 10.7699 36.75 10.5054L39.2083 8.04096C40.2639 6.97583 40.2639 5.2563 39.2083 4.19814ZM26.6667 24.1014V31.1884H4.44444V8.91116H20.4028C20.625 8.91116 20.8333 8.82066 20.9931 8.6675L23.7708 5.88285C24.2986 5.35377 23.9236 4.45572 23.1806 4.45572H3.33333C1.49306 4.45572 0 5.95247 0 7.7973V32.3022C0 34.1471 1.49306 35.6438 3.33333 35.6438H27.7778C29.6181 35.6438 31.1111 34.1471 31.1111 32.3022V21.3168C31.1111 20.5719 30.2153 20.2029 29.6875 20.7251L26.9097 23.5097C26.7569 23.6698 26.6667 23.8787 26.6667 24.1014Z" fill="#009ADD"/>
<path d="M39.2083 4.19814L35.8194 0.800859C34.7639 -0.257309 33.0486 -0.257309 31.9861 0.800859L29.5278 3.26528C29.2639 3.52982 29.2639 3.96144 29.5278 4.22598L35.7916 10.5054C36.0555 10.7699 36.4861 10.7699 36.75 10.5054L39.2083 8.04096C40.2639 6.97583 40.2639 5.2563 39.2083 4.19814Z" fill="#FFCA4A"/>
<path d="M12.5559 28.4496L12.5549 28.4497C12.0145 28.5108 11.5535 28.0514 11.615 27.5057L11.6151 27.5048L12.3111 21.2185L27.354 6.13825C27.4226 6.06956 27.5359 6.06956 27.6044 6.13825L33.8683 12.4176C33.9375 12.487 33.9375 12.6027 33.8683 12.6721L18.8257 27.7519L12.5559 28.4496Z" fill="#009ADD" stroke="#2E77CF"/>
</g>
<defs>
<clipPath id="clip0_17:809">
<rect width="40" height="35.6436" fill="white"/>
</clipPath>
</defs>
</svg>
