<svg width="40" height="32" viewBox="0 0 40 32" fill="none" xmlns="http://www.w3.org/2000/svg">
<path d="M32.0086 11.9685L31.4961 12.8651C31.3086 13.1974 30.9086 13.3353 30.5524 13.2036C29.8149 12.9278 29.1399 12.5328 28.5461 12.0374C28.2586 11.7992 28.1836 11.3791 28.3711 11.0531L28.8836 10.1565C28.4524 9.65488 28.1149 9.07178 27.8899 8.43851H26.8586C26.4836 8.43851 26.1586 8.16891 26.0961 7.79271C25.9711 7.04033 25.9649 6.25032 26.0961 5.46658C26.1586 5.09039 26.4836 4.81451 26.8586 4.81451H27.8899C28.1149 4.18125 28.4524 3.59815 28.8836 3.09656L28.3711 2.19996C28.1836 1.87393 28.2524 1.45384 28.5461 1.21558C29.1399 0.720263 29.8211 0.325259 30.5524 0.0493828C30.9086 -0.0822851 31.3086 0.0556528 31.4961 0.387958L32.0086 1.28455C32.6649 1.16543 33.3336 1.16543 33.9899 1.28455L34.5024 0.387958C34.6899 0.0556528 35.0899 -0.0822851 35.4461 0.0493828C36.1836 0.325259 36.8586 0.720263 37.4524 1.21558C37.7399 1.45384 37.8149 1.87393 37.6274 2.19996L37.1149 3.09656C37.5461 3.59815 37.8836 4.18125 38.1086 4.81451H39.1399C39.5149 4.81451 39.8399 5.08412 39.9024 5.46031C40.0274 6.2127 40.0336 7.00271 39.9024 7.78645C39.8399 8.16264 39.5149 8.43851 39.1399 8.43851H38.1086C37.8836 9.07178 37.5461 9.65488 37.1149 10.1565L37.6274 11.0531C37.8149 11.3791 37.7461 11.7992 37.4524 12.0374C36.8586 12.5328 36.1774 12.9278 35.4461 13.2036C35.0899 13.3353 34.6899 13.1974 34.5024 12.8651L33.9899 11.9685C33.3399 12.0876 32.6649 12.0876 32.0086 11.9685ZM31.3524 8.28177C33.7586 10.1377 36.5024 7.38517 34.6524 4.97126C32.2461 3.1091 29.5024 5.86785 31.3524 8.28177Z" fill="#FFCA4A"/>
<path d="M24.1443 17.9312L26.2506 18.9845C26.8818 19.3482 27.1568 20.1194 26.9068 20.809C26.3506 22.3264 25.2568 23.7183 24.2443 24.9346C23.7818 25.4927 22.9818 25.6306 22.3506 25.267L20.5318 24.2136C19.5318 25.0726 18.3693 25.756 17.1006 26.2012V28.3079C17.1006 29.0352 16.5818 29.6622 15.8693 29.7876C14.3318 30.0509 12.7193 30.0634 11.1256 29.7876C10.4068 29.6622 9.87559 29.0414 9.87559 28.3079V26.2012C8.60684 25.7497 7.44434 25.0726 6.44434 24.2136L4.62559 25.2607C4.00059 25.6243 3.19434 25.4864 2.73184 24.9284C1.71934 23.712 0.650587 22.3201 0.0943369 20.809C-0.155663 20.1256 0.119337 19.3544 0.750587 18.9845L2.83184 17.9312C2.58809 16.6208 2.58809 15.2727 2.83184 13.956L0.750587 12.8964C0.119337 12.5328 -0.161913 11.7616 0.0943369 11.0782C0.650587 9.56084 1.71934 8.16892 2.73184 6.95256C3.19434 6.39454 3.99434 6.2566 4.62559 6.62026L6.44434 7.6736C7.44434 6.81462 8.60684 6.1312 9.87559 5.68604V3.57308C9.87559 2.85205 10.3881 2.22505 11.1006 2.09966C12.6381 1.83632 14.2568 1.82378 15.8506 2.09339C16.5693 2.21879 17.1006 2.83951 17.1006 3.57308V5.67977C18.3693 6.1312 19.5318 6.80836 20.5318 7.66733L22.3506 6.61399C22.9756 6.25033 23.7818 6.38827 24.2443 6.94629C25.2568 8.16265 26.3193 9.55457 26.8756 11.0719C27.1256 11.7553 26.8818 12.5265 26.2506 12.8964L24.1443 13.9498C24.3881 15.2665 24.3881 16.6145 24.1443 17.9312ZM16.7943 19.2541C20.4943 14.4263 15.0006 8.91504 10.1881 12.6268C6.48809 17.4547 11.9818 22.9659 16.7943 19.2541ZM32.0068 30.7092L31.4943 31.6058C31.3068 31.9381 30.9068 32.0761 30.5506 31.9444C29.8131 31.6685 29.1381 31.2735 28.5443 30.7782C28.2568 30.5399 28.1818 30.1199 28.3693 29.7938L28.8818 28.8972C28.4506 28.3956 28.1131 27.8125 27.8881 27.1793H26.8568C26.4818 27.1793 26.1568 26.9097 26.0943 26.5335C25.9693 25.7811 25.9631 24.9911 26.0943 24.2073C26.1568 23.8311 26.4818 23.5553 26.8568 23.5553H27.8881C28.1131 22.922 28.4506 22.3389 28.8818 21.8373L28.3693 20.9407C28.1818 20.6147 28.2506 20.1946 28.5443 19.9563C29.1381 19.461 29.8193 19.066 30.5506 18.7901C30.9068 18.6585 31.3068 18.7964 31.4943 19.1287L32.0068 20.0253C32.6631 19.9062 33.3318 19.9062 33.9881 20.0253L34.5006 19.1287C34.6881 18.7964 35.0881 18.6585 35.4443 18.7901C36.1818 19.066 36.8568 19.461 37.4506 19.9563C37.7381 20.1946 37.8131 20.6147 37.6256 20.9407L37.1131 21.8373C37.5443 22.3389 37.8818 22.922 38.1068 23.5553H39.1381C39.5131 23.5553 39.8381 23.8249 39.9006 24.2011C40.0256 24.9535 40.0318 25.7435 39.9006 26.5272C39.8381 26.9034 39.5131 27.1793 39.1381 27.1793H38.1068C37.8818 27.8125 37.5443 28.3956 37.1131 28.8972L37.6256 29.7938C37.8131 30.1199 37.7443 30.5399 37.4506 30.7782C36.8568 31.2735 36.1756 31.6685 35.4443 31.9444C35.0881 32.0761 34.6881 31.9381 34.5006 31.6058L33.9881 30.7092C33.3381 30.8284 32.6631 30.8284 32.0068 30.7092ZM31.3506 27.0163C33.7568 28.8721 36.5006 26.1197 34.6506 23.7057C32.2443 21.8499 29.5006 24.6023 31.3506 27.0163Z" fill="#009ADD"/>
<circle cx="13.5" cy="16" r="4.5" stroke="#2E77CF" stroke-width="2"/>
</svg>
