<svg width="41" height="36" viewBox="0 0 41 36" fill="none" xmlns="http://www.w3.org/2000/svg">
<path d="M40.225 16.6391C40.225 15.0008 39.3257 13.5858 38.0028 12.8176V2.21924C38.0028 1.6126 37.518 0 35.7805 0C35.2861 0 34.7951 0.165004 34.393 0.486693L28.4882 5.20318C25.5222 7.57009 21.7986 8.87417 18.0028 8.87417H4.66942C2.21456 8.87417 0.224976 10.8605 0.224976 13.3113V19.9669C0.224976 22.4177 2.21456 24.404 4.66942 24.404H7.0097C6.91317 25.1305 6.85831 25.8696 6.85831 26.6225C6.85831 29.3797 7.50137 31.9852 8.63331 34.3139C8.99373 35.0551 9.78053 35.4967 10.6055 35.4967H15.7639C17.5729 35.4967 18.659 33.4279 17.5625 31.9914C16.4236 30.4994 15.7465 28.6386 15.7465 26.6225C15.7465 25.8523 15.859 25.1118 16.0528 24.404H18.0028C21.7986 24.404 25.5222 25.7081 28.4875 28.075L34.3923 32.7915C34.7862 33.1061 35.2754 33.2777 35.7798 33.2781C37.5104 33.2781 38.0021 31.6988 38.0021 31.0596V20.4612C39.3257 19.6923 40.225 18.2773 40.225 16.6391ZM33.5583 26.4436L31.2632 24.6106C27.5132 21.6155 22.8028 19.9669 18.0028 19.9669V13.3113C22.8028 13.3113 27.5132 11.6626 31.2632 8.66757L33.5583 6.8345V26.4436Z" fill="#009ADD"/>
<path d="M41 16.8C41 19.8 38 20.8 38 20.8V12.8C38 12.8 41 13.8 41 16.8Z" fill="#2E77CF"/>
<path d="M33.5556 26.4436L31.2604 24.6105C27.5104 21.6155 22.8 19.9669 18 19.9669V13.3112C22.8 13.3112 27.5104 11.6626 31.2604 8.66754L33.5556 6.83447V26.4436Z" fill="#FFCA4A"/>
</svg>
