<svg width="30" height="30" viewBox="0 0 30 30" fill="none" xmlns="http://www.w3.org/2000/svg">
<path d="M22.0312 19.4531C21.1963 19.4531 20.4258 19.7461 19.8223 20.2354L13.752 15.8438C13.8536 15.2858 13.8536 14.7142 13.752 14.1562L19.8223 9.76465C20.4258 10.2539 21.1963 10.5469 22.0312 10.5469C23.9707 10.5469 25.5469 8.9707 25.5469 7.03125C25.5469 5.0918 23.9707 3.51562 22.0312 3.51562C20.0918 3.51562 18.5156 5.0918 18.5156 7.03125C18.5156 7.37109 18.5625 7.69629 18.6533 8.00684L12.8877 12.1816C12.0322 11.0479 10.6729 10.3125 9.14062 10.3125C6.55078 10.3125 4.45312 12.4102 4.45312 15C4.45312 17.5898 6.55078 19.6875 9.14062 19.6875C10.6729 19.6875 12.0322 18.9521 12.8877 17.8184L18.6533 21.9932C18.5625 22.3037 18.5156 22.6318 18.5156 22.9688C18.5156 24.9082 20.0918 26.4844 22.0312 26.4844C23.9707 26.4844 25.5469 24.9082 25.5469 22.9688C25.5469 21.0293 23.9707 19.4531 22.0312 19.4531ZM22.0312 5.50781C22.8721 5.50781 23.5547 6.19043 23.5547 7.03125C23.5547 7.87207 22.8721 8.55469 22.0312 8.55469C21.1904 8.55469 20.5078 7.87207 20.5078 7.03125C20.5078 6.19043 21.1904 5.50781 22.0312 5.50781ZM9.14062 17.5781C7.71973 17.5781 6.5625 16.4209 6.5625 15C6.5625 13.5791 7.71973 12.4219 9.14062 12.4219C10.5615 12.4219 11.7188 13.5791 11.7188 15C11.7188 16.4209 10.5615 17.5781 9.14062 17.5781ZM22.0312 24.4922C21.1904 24.4922 20.5078 23.8096 20.5078 22.9688C20.5078 22.1279 21.1904 21.4453 22.0312 21.4453C22.8721 21.4453 23.5547 22.1279 23.5547 22.9688C23.5547 23.8096 22.8721 24.4922 22.0312 24.4922Z" fill="white"/>
</svg>
