<svg width="40" height="40" viewBox="0 0 40 40" fill="none" xmlns="http://www.w3.org/2000/svg">
<g clip-path="url(#clip0_17:787)">
<path d="M34.7727 27.7273C32.8906 27.7273 31.3636 29.2543 31.3636 31.1364C31.3636 33.0185 32.8906 34.5455 34.7727 34.5455C36.6548 34.5455 38.1818 33.0185 38.1818 31.1364C38.1818 29.2543 36.6548 27.7273 34.7727 27.7273ZM26.321 28.5156C26.6477 27.4858 26.4346 26.3281 25.625 25.5114C24.8082 24.6946 23.6505 24.4886 22.6207 24.8082C22.1236 23.8494 21.1505 23.1747 20 23.1747C18.8494 23.1747 17.8764 23.8494 17.3792 24.8082C16.3494 24.4815 15.1917 24.6946 14.375 25.5114C13.5582 26.3281 13.3523 27.4858 13.6719 28.5156C12.713 29.0128 12.0383 29.9858 12.0383 31.1364C12.0383 32.2869 12.713 33.2599 13.6719 33.7571C13.3451 34.7869 13.5582 35.9446 14.375 36.7614C14.9574 37.3437 15.7173 37.6349 16.4844 37.6349C16.7898 37.6349 17.088 37.5568 17.3792 37.4574C17.8764 38.4162 18.8494 39.0909 20 39.0909C21.1505 39.0909 22.1236 38.4162 22.6207 37.4574C22.9119 37.5497 23.2102 37.6349 23.5156 37.6349C24.2826 37.6349 25.0426 37.3437 25.625 36.7614C26.4417 35.9446 26.6477 34.7869 26.321 33.7571C27.2798 33.2599 27.9545 32.2869 27.9545 31.1364C27.9545 29.9858 27.2798 29.0128 26.321 28.5156Z" fill="#009ADD"/>
<path d="M5.22733 27.7273C3.34523 27.7273 1.81824 29.2543 1.81824 31.1364C1.81824 33.0185 3.34523 34.5454 5.22733 34.5454C7.10943 34.5454 8.63642 33.0185 8.63642 31.1364C8.63642 29.2543 7.10943 27.7273 5.22733 27.7273Z" fill="#FFCA4A"/>
<path d="M38.1819 17.7273C38.1819 13.9631 35.1279 10.9091 31.3637 10.9091C31.3211 10.9091 31.2856 10.9233 31.2501 10.9233C31.3282 10.554 31.3637 10.1704 31.3637 9.77272C31.3637 6.63352 28.8211 4.0909 25.6819 4.0909C23.9347 4.0909 22.3935 4.89346 21.3495 6.13636C20.0285 3.57954 17.3935 1.81818 14.3182 1.81818C9.92193 1.81818 6.36369 5.37641 6.36369 9.77272C6.36369 10.2912 6.42051 10.7883 6.51284 11.2784C3.79267 12.1733 1.81824 14.7088 1.81824 17.7273C1.81824 21.4915 4.87221 24.5454 8.63642 24.5454H11.7188C11.9745 23.9773 12.3154 23.4517 12.7699 22.9972C13.7287 22.0383 15.0072 21.4986 16.3779 21.4844C17.3367 20.5469 18.6293 20 20.0001 20C21.3708 20 22.6634 20.5469 23.6222 21.4844C24.993 21.4986 26.2714 22.0383 27.2302 22.9972C27.6847 23.4517 28.0327 23.9773 28.2813 24.5454H31.3637C35.1279 24.5454 38.1819 21.4915 38.1819 17.7273Z" fill="#009ADD" stroke="#2E77CF" stroke-width="2"/>
</g>
<defs>
<clipPath id="clip0_17:787">
<rect width="40" height="39.0909" fill="white"/>
</clipPath>
</defs>
</svg>
