<svg width="40" height="36" viewBox="0 0 40 36" fill="none" xmlns="http://www.w3.org/2000/svg">
<g clip-path="url(#clip0_17:796)">
<path d="M38.889 15.5256H36.8404C36.2293 14.1394 35.3404 12.9126 34.2432 11.8868L35.5557 6.65385H33.3335C31.2918 6.65385 29.4863 7.58954 28.264 9.03121C27.7363 8.95497 27.2154 8.87179 26.6668 8.87179H17.7779C12.4029 8.87179 7.92376 12.6839 6.88903 17.7436H3.88903C2.86125 17.7436 2.04875 16.8079 2.25709 15.7474C2.40987 14.9573 3.15292 14.4167 3.95848 14.4167H4.02792C4.25709 14.4167 4.44459 14.2295 4.44459 14.0008V12.6146C4.44459 12.3859 4.25709 12.1987 4.02792 12.1987C2.04875 12.1987 0.284866 13.6127 0.0348657 15.5672C-0.27069 17.9377 1.57653 19.9615 3.88903 19.9615H6.66681C6.66681 23.5796 8.4307 26.7609 11.1113 28.7848V34.3782C11.1113 34.9881 11.6113 35.4872 12.2224 35.4872H16.6668C17.2779 35.4872 17.7779 34.9881 17.7779 34.3782V31.0513H26.6668V34.3782C26.6668 34.9881 27.1668 35.4872 27.7779 35.4872H32.2224C32.8335 35.4872 33.3335 34.9881 33.3335 34.3782V28.7848C34.1529 28.1679 34.8821 27.4402 35.5071 26.6154H38.889C39.5001 26.6154 40.0001 26.1163 40.0001 25.5064V16.6346C40.0001 16.0247 39.5001 15.5256 38.889 15.5256ZM30.0001 19.9615C29.389 19.9615 28.889 19.4625 28.889 18.8526C28.889 18.2426 29.389 17.7436 30.0001 17.7436C30.6113 17.7436 31.1113 18.2426 31.1113 18.8526C31.1113 19.4625 30.6113 19.9615 30.0001 19.9615ZM17.7779 6.65385H26.6668C27.0418 6.65385 27.4099 6.68157 27.771 6.7093C27.771 6.6885 27.7779 6.67464 27.7779 6.65385C27.7779 2.98037 24.7918 0 21.1113 0C17.4307 0 14.4446 2.98037 14.4446 6.65385C14.4446 6.7994 14.4793 6.93802 14.4863 7.08357C15.5418 6.81326 16.639 6.65385 17.7779 6.65385Z" fill="#009ADD"/>
<path d="M17.8333 6.65385H26.7222C27.0972 6.65385 27.4653 6.68157 27.8264 6.7093C27.8264 6.6885 27.8333 6.67464 27.8333 6.65385C27.8333 2.98037 24.8472 0 21.1667 0C17.4861 0 14.5 2.98037 14.5 6.65385C14.5 6.7994 14.5347 6.93802 14.5417 7.08357C15.5972 6.81326 16.6944 6.65385 17.8333 6.65385Z" fill="#FFCA4A"/>
<path d="M30.0011 19.9679C29.39 19.9679 28.89 19.4689 28.89 18.859C28.89 18.249 29.39 17.75 30.0011 17.75C30.6122 17.75 31.1122 18.249 31.1122 18.859C31.1122 19.4689 30.6122 19.9679 30.0011 19.9679Z" fill="#2E77CF"/>
<path d="M3.88732 17.7449H6.88732L6.6651 19.9628H3.88732C1.57482 19.9628 -0.272399 17.9389 0.0331567 15.5685C0.283157 13.6139 2.04705 12.2 4.02621 12.2C4.25538 12.2 4.44288 12.3871 4.44288 12.6159V14.0021C4.44288 14.2308 4.25538 14.4179 4.02621 14.4179H3.95677C3.15121 14.4179 2.40816 14.9586 2.25538 15.7487C2.04705 16.8092 2.85955 17.7449 3.88732 17.7449Z" fill="#FFCA4A"/>
<path d="M12.2206 35.4872C11.6095 35.4872 11.1095 34.9881 11.1095 34.3782V31.0513H17.7762V34.3782C17.7762 34.9881 17.2762 35.4872 16.6651 35.4872H12.2206Z" fill="#2E77CF"/>
<path d="M26.6651 34.3782V31.0513H33.3317V34.3782C33.3317 34.9881 32.8317 35.4872 32.2206 35.4872H27.7762C27.1651 35.4872 26.6651 34.9881 26.6651 34.3782Z" fill="#2E77CF"/>
</g>
<defs>
<clipPath id="clip0_17:796">
<rect width="40" height="35.4872" fill="white"/>
</clipPath>
</defs>
</svg>
