<svg width="21" height="19" viewBox="0 0 21 19" fill="none" xmlns="http://www.w3.org/2000/svg">
<path d="M2.57367 1.77669C2.00716 2.33076 1.55412 2.98997 1.23993 3.71743C0.914106 4.47451 0.747681 5.27847 0.750025 6.10586C0.750025 6.88638 0.90942 7.69971 1.22586 8.5271C1.48839 9.21855 1.87046 9.93578 2.35568 10.66C3.12451 11.8062 4.18167 13.0016 5.49432 14.2134C7.67191 16.2221 9.82372 17.6073 9.91514 17.6659L10.4707 18.0222C10.7168 18.1793 11.0332 18.1793 11.2794 18.0222L11.8349 17.6659C11.9263 17.6097 14.0805 16.2221 16.2557 14.2134C17.5684 13.0016 18.6255 11.8062 19.3943 10.66C19.8796 9.93578 20.2593 9.21855 20.5242 8.5271C20.8406 7.69971 21 6.88638 21 6.10586C21 5.27847 20.8336 4.47451 20.5078 3.71743C20.1944 2.98951 19.7413 2.33013 19.174 1.77669C18.6044 1.21884 17.9411 0.780533 17.205 0.475827C16.4432 0.159401 15.6369 1.64749e-05 14.8048 1.64749e-05C13.6492 1.64749e-05 12.5217 0.316442 11.5419 0.914135C11.3075 1.05711 11.0848 1.21415 10.8738 1.38526C10.6629 1.21415 10.4402 1.05711 10.2058 0.914135C9.226 0.316442 8.09852 1.64749e-05 6.94292 1.64749e-05C6.11921 -0.0018793 5.30334 0.159854 4.54265 0.475827C3.80906 0.77934 3.14062 1.22096 2.57367 1.77669Z" fill="white"/>
</svg>
