<svg width="20" height="16" viewBox="0 0 20 16" fill="none" xmlns="http://www.w3.org/2000/svg">
<path d="M18.9375 0.46875H5.25C5.14687 0.46875 5.0625 0.553125 5.0625 0.65625V1.96875C5.0625 2.07188 5.14687 2.15625 5.25 2.15625H18.9375C19.0406 2.15625 19.125 2.07188 19.125 1.96875V0.65625C19.125 0.553125 19.0406 0.46875 18.9375 0.46875ZM18.9375 7.125H5.25C5.14687 7.125 5.0625 7.20937 5.0625 7.3125V8.625C5.0625 8.72813 5.14687 8.8125 5.25 8.8125H18.9375C19.0406 8.8125 19.125 8.72813 19.125 8.625V7.3125C19.125 7.20937 19.0406 7.125 18.9375 7.125ZM18.9375 13.7812H5.25C5.14687 13.7812 5.0625 13.8656 5.0625 13.9688V15.2812C5.0625 15.3844 5.14687 15.4688 5.25 15.4688H18.9375C19.0406 15.4688 19.125 15.3844 19.125 15.2812V13.9688C19.125 13.8656 19.0406 13.7812 18.9375 13.7812ZM0 1.3125C-2.56836e-09 1.48486 0.0339489 1.65553 0.0999082 1.81477C0.165867 1.97401 0.262546 2.1187 0.384422 2.24058C0.506299 2.36245 0.650988 2.45913 0.810228 2.52509C0.969468 2.59105 1.14014 2.625 1.3125 2.625C1.48486 2.625 1.65553 2.59105 1.81477 2.52509C1.97401 2.45913 2.1187 2.36245 2.24058 2.24058C2.36245 2.1187 2.45913 1.97401 2.52509 1.81477C2.59105 1.65553 2.625 1.48486 2.625 1.3125C2.625 1.14014 2.59105 0.969468 2.52509 0.810228C2.45913 0.650988 2.36245 0.506299 2.24058 0.384422C2.1187 0.262546 1.97401 0.165867 1.81477 0.099908C1.65553 0.0339487 1.48486 0 1.3125 0C1.14014 0 0.969468 0.0339487 0.810228 0.099908C0.650988 0.165867 0.506299 0.262546 0.384422 0.384422C0.262546 0.506299 0.165867 0.650988 0.0999082 0.810228C0.0339489 0.969468 -2.56836e-09 1.14014 0 1.3125V1.3125ZM0 7.96875C-2.56836e-09 8.14111 0.0339489 8.31178 0.0999082 8.47102C0.165867 8.63026 0.262546 8.77495 0.384422 8.89683C0.506299 9.0187 0.650988 9.11538 0.810228 9.18134C0.969468 9.2473 1.14014 9.28125 1.3125 9.28125C1.48486 9.28125 1.65553 9.2473 1.81477 9.18134C1.97401 9.11538 2.1187 9.0187 2.24058 8.89683C2.36245 8.77495 2.45913 8.63026 2.52509 8.47102C2.59105 8.31178 2.625 8.14111 2.625 7.96875C2.625 7.79639 2.59105 7.62572 2.52509 7.46648C2.45913 7.30724 2.36245 7.16255 2.24058 7.04067C2.1187 6.9188 1.97401 6.82212 1.81477 6.75616C1.65553 6.6902 1.48486 6.65625 1.3125 6.65625C1.14014 6.65625 0.969468 6.6902 0.810228 6.75616C0.650988 6.82212 0.506299 6.9188 0.384422 7.04067C0.262546 7.16255 0.165867 7.30724 0.0999082 7.46648C0.0339489 7.62572 -2.56836e-09 7.79639 0 7.96875V7.96875ZM0 14.625C-2.56836e-09 14.7974 0.0339489 14.968 0.0999082 15.1273C0.165867 15.2865 0.262546 15.4312 0.384422 15.5531C0.506299 15.675 0.650988 15.7716 0.810228 15.8376C0.969468 15.9036 1.14014 15.9375 1.3125 15.9375C1.48486 15.9375 1.65553 15.9036 1.81477 15.8376C1.97401 15.7716 2.1187 15.675 2.24058 15.5531C2.36245 15.4312 2.45913 15.2865 2.52509 15.1273C2.59105 14.968 2.625 14.7974 2.625 14.625C2.625 14.4526 2.59105 14.282 2.52509 14.1227C2.45913 13.9635 2.36245 13.8188 2.24058 13.6969C2.1187 13.575 1.97401 13.4784 1.81477 13.4124C1.65553 13.3464 1.48486 13.3125 1.3125 13.3125C1.14014 13.3125 0.969468 13.3464 0.810228 13.4124C0.650988 13.4784 0.506299 13.575 0.384422 13.6969C0.262546 13.8188 0.165867 13.9635 0.0999082 14.1227C0.0339489 14.282 -2.56836e-09 14.4526 0 14.625V14.625Z" fill="white"/>
</svg>
