<svg width="67" height="67" viewBox="0 0 67 67" fill="none" xmlns="http://www.w3.org/2000/svg">
<path d="M33.3125 4.1875C17.1252 4.1875 4 17.3127 4 33.5C4 49.6873 17.1252 62.8125 33.3125 62.8125C49.4998 62.8125 62.625 49.6873 62.625 33.5C62.625 17.3127 49.4998 4.1875 33.3125 4.1875ZM33.3125 57.8398C19.8732 57.8398 8.97266 46.9393 8.97266 33.5C8.97266 20.0607 19.8732 9.16016 33.3125 9.16016C46.7518 9.16016 57.6523 20.0607 57.6523 33.5C57.6523 46.9393 46.7518 57.8398 33.3125 57.8398Z" fill="white"/>
<path d="M47.0701 32.656L27.6964 18.5886C27.541 18.4747 27.3571 18.4062 27.165 18.3907C26.973 18.3752 26.7804 18.4133 26.6088 18.5008C26.4371 18.5883 26.2932 18.7218 26.1929 18.8863C26.0927 19.0508 26.0401 19.24 26.041 19.4326V47.5674C26.041 48.4245 27.0094 48.9087 27.6964 48.4114L47.0701 34.3441C47.2039 34.2477 47.3128 34.1209 47.388 33.9741C47.4631 33.8274 47.5023 33.6649 47.5023 33.5C47.5023 33.3351 47.4631 33.1726 47.388 33.0259C47.3128 32.8791 47.2039 32.7524 47.0701 32.656ZM30.2154 41.4236V25.5765L41.1226 33.5L30.2154 41.4236Z" fill="white"/>
</svg>
