<svg width="10" height="10" viewBox="0 0 10 10" fill="none" xmlns="http://www.w3.org/2000/svg">
<path d="M5.6748 9.61877C5.76353 9.50309 5.83393 9.36561 5.88197 9.21421C5.93001 9.06281 5.95474 8.90048 5.95474 8.73653C5.95474 8.57259 5.93001 8.41025 5.88197 8.25886C5.83393 8.10746 5.76353 7.96997 5.6748 7.8543C5.58651 7.73785 5.4815 7.64541 5.36582 7.58229C5.25014 7.51917 5.12607 7.48661 5.00075 7.4865C4.87543 7.48638 4.75133 7.5187 4.63558 7.58161C4.51984 7.64452 4.41473 7.73676 4.32631 7.85305C4.23522 7.96824 4.16257 8.10603 4.11259 8.25838C4.06261 8.41074 4.0363 8.5746 4.0352 8.7404C4.0341 8.90621 4.05823 9.07064 4.10618 9.22411C4.15413 9.37758 4.22494 9.517 4.31449 9.63425C4.40403 9.7515 4.51051 9.84422 4.62771 9.90701C4.74492 9.9698 4.8705 10.0014 4.99712 9.99995C5.12375 9.99851 5.24889 9.96406 5.36525 9.89862C5.4816 9.83317 5.58683 9.73804 5.6748 9.61877ZM9.04653 4.6881C8.92126 4.68841 8.79718 4.65623 8.68146 4.59344C8.56574 4.53064 8.46066 4.43846 8.37228 4.32222C6.51309 1.88779 3.48803 1.88841 1.62836 4.32222C1.44947 4.55645 1.20685 4.68804 0.953869 4.68804C0.700887 4.68804 0.458267 4.55645 0.279382 4.32222C0.100497 4.08799 0 3.7703 0 3.43904C0 3.10779 0.100497 2.7901 0.279382 2.55587C2.88244 -0.851956 7.11772 -0.851956 9.7203 2.55587C9.85377 2.73044 9.9447 2.95292 9.98159 3.19516C10.0185 3.43741 9.99967 3.68854 9.92754 3.91679C9.85542 4.14503 9.73322 4.34015 9.57639 4.47744C9.41957 4.61474 9.23517 4.68805 9.04653 4.6881ZM2.97733 7.33669C2.78874 7.33664 2.6044 7.26337 2.4476 7.12615C2.29081 6.98894 2.16861 6.79393 2.09644 6.56578C2.02428 6.33764 2.00539 6.0866 2.04217 5.8444C2.07895 5.6022 2.16975 5.37972 2.30308 5.20508C3.78986 3.25766 6.21029 3.25766 7.69755 5.20508C7.87644 5.43931 7.97693 5.757 7.97693 6.08826C7.97693 6.41951 7.87644 6.7372 7.69755 6.97143C7.51867 7.20566 7.27605 7.33726 7.02306 7.33726C6.77008 7.33726 6.52746 7.20566 6.34858 6.97143C5.99057 6.5038 5.50553 6.24118 4.99984 6.24118C4.49416 6.24118 4.00911 6.5038 3.6511 6.97143C3.56274 7.08749 3.45772 7.17951 3.34208 7.24219C3.22645 7.30488 3.10249 7.337 2.97733 7.33669Z" fill="white"/>
</svg>
